<mxfile host="Electron" agent="Mozilla/5.0 (Windows NT 10.0; Win64; x64) AppleWebKit/537.36 (KHTML, like Gecko) draw.io/24.7.8 Chrome/128.0.6613.36 Electron/32.0.1 Safari/537.36" version="24.7.8">
  <diagram name="Page-1" id="edf60f1a-56cd-e834-aa8a-f176f3a09ee4">
    <mxGraphModel dx="1191" dy="708" grid="1" gridSize="10" guides="1" tooltips="1" connect="1" arrows="1" fold="1" page="1" pageScale="1" pageWidth="1100" pageHeight="850" background="none" math="0" shadow="0">
      <root>
        <mxCell id="0" />
        <mxCell id="1" parent="0" />
        <mxCell id="ogi-cVwxuLuFs3qtHHxP-14" style="edgeStyle=orthogonalEdgeStyle;rounded=0;orthogonalLoop=1;jettySize=auto;html=1;entryX=0.5;entryY=0;entryDx=0;entryDy=0;" edge="1" parent="1" source="ogi-cVwxuLuFs3qtHHxP-5" target="ogi-cVwxuLuFs3qtHHxP-6">
          <mxGeometry relative="1" as="geometry" />
        </mxCell>
        <mxCell id="ogi-cVwxuLuFs3qtHHxP-5" value="get_a(x,y,z)" style="shape=process;whiteSpace=wrap;html=1;backgroundOutline=1;" vertex="1" parent="1">
          <mxGeometry x="500" y="210" width="140" height="70" as="geometry" />
        </mxCell>
        <mxCell id="ogi-cVwxuLuFs3qtHHxP-15" style="edgeStyle=orthogonalEdgeStyle;rounded=0;orthogonalLoop=1;jettySize=auto;html=1;entryX=0.5;entryY=0;entryDx=0;entryDy=0;" edge="1" parent="1" source="ogi-cVwxuLuFs3qtHHxP-6" target="ogi-cVwxuLuFs3qtHHxP-11">
          <mxGeometry relative="1" as="geometry" />
        </mxCell>
        <mxCell id="ogi-cVwxuLuFs3qtHHxP-6" value="get_b(x,y,z)" style="shape=process;whiteSpace=wrap;html=1;backgroundOutline=1;" vertex="1" parent="1">
          <mxGeometry x="500" y="320" width="140" height="70" as="geometry" />
        </mxCell>
        <mxCell id="ogi-cVwxuLuFs3qtHHxP-12" style="edgeStyle=orthogonalEdgeStyle;rounded=0;orthogonalLoop=1;jettySize=auto;html=1;entryX=0.5;entryY=0;entryDx=0;entryDy=0;" edge="1" parent="1" source="ogi-cVwxuLuFs3qtHHxP-8" target="ogi-cVwxuLuFs3qtHHxP-10">
          <mxGeometry relative="1" as="geometry" />
        </mxCell>
        <mxCell id="ogi-cVwxuLuFs3qtHHxP-8" value="Начало" style="rounded=1;whiteSpace=wrap;html=1;" vertex="1" parent="1">
          <mxGeometry x="510" y="20" width="120" height="60" as="geometry" />
        </mxCell>
        <mxCell id="ogi-cVwxuLuFs3qtHHxP-13" style="edgeStyle=orthogonalEdgeStyle;rounded=0;orthogonalLoop=1;jettySize=auto;html=1;entryX=0.5;entryY=0;entryDx=0;entryDy=0;" edge="1" parent="1" source="ogi-cVwxuLuFs3qtHHxP-10" target="ogi-cVwxuLuFs3qtHHxP-5">
          <mxGeometry relative="1" as="geometry" />
        </mxCell>
        <mxCell id="ogi-cVwxuLuFs3qtHHxP-10" value="&lt;div&gt;x=0.2&lt;/div&gt;&lt;div&gt;y=0.004&lt;/div&gt;&lt;div&gt;z=1.1&lt;/div&gt;&lt;div&gt;&lt;br&gt;&lt;/div&gt;" style="rounded=0;whiteSpace=wrap;html=1;" vertex="1" parent="1">
          <mxGeometry x="510" y="110" width="120" height="60" as="geometry" />
        </mxCell>
        <mxCell id="ogi-cVwxuLuFs3qtHHxP-11" value="a,b,x,y,z" style="shape=document;whiteSpace=wrap;html=1;boundedLbl=1;" vertex="1" parent="1">
          <mxGeometry x="510" y="430" width="120" height="80" as="geometry" />
        </mxCell>
        <mxCell id="ogi-cVwxuLuFs3qtHHxP-16" style="edgeStyle=orthogonalEdgeStyle;rounded=0;orthogonalLoop=1;jettySize=auto;html=1;entryX=0.5;entryY=0;entryDx=0;entryDy=0;" edge="1" parent="1" source="ogi-cVwxuLuFs3qtHHxP-17" target="ogi-cVwxuLuFs3qtHHxP-18">
          <mxGeometry relative="1" as="geometry" />
        </mxCell>
        <mxCell id="ogi-cVwxuLuFs3qtHHxP-17" value="&lt;font style=&quot;font-size: 15px;&quot;&gt;get_a(x,y,z)&lt;/font&gt;" style="rounded=1;whiteSpace=wrap;html=1;" vertex="1" parent="1">
          <mxGeometry x="197.5" y="560" width="165" height="80" as="geometry" />
        </mxCell>
        <mxCell id="ogi-cVwxuLuFs3qtHHxP-21" style="edgeStyle=orthogonalEdgeStyle;rounded=0;orthogonalLoop=1;jettySize=auto;html=1;entryX=0.5;entryY=0;entryDx=0;entryDy=0;" edge="1" parent="1" source="ogi-cVwxuLuFs3qtHHxP-18" target="ogi-cVwxuLuFs3qtHHxP-20">
          <mxGeometry relative="1" as="geometry" />
        </mxCell>
        <mxCell id="ogi-cVwxuLuFs3qtHHxP-18" value="&lt;div&gt;&lt;img alt=&quot;&quot; src=&quot;data:image/png;base64,iVBORw0KGgoAAAANSUhEUgAAASUAAABQCAYAAABf/2OxAAAAAXNSR0IArs4c6QAAAARnQU1BAACxjwv8YQUAAAAJcEhZcwAADsMAAA7DAcdvqGQAAAuqSURBVHhe7Z3LaxRNF4fb7w/wvhIRedWFqCgaL4gKBryQlaIS3Yig4A0EFbxmI16iLlwIahQFN95AlxEvoKBu4g0FJZtERNSVd/8A33nq7ePXdnoyMyYzU9X5PdCp6urJdFdN96lTp06dHvSrQCSECJ7Pnz9HI0eOjPf+Dh/Ewf/iVAgROJ2dnS59+PChF8Llb5FQEiJnzJs3z6UIpko3H5BQEkJ4hYSSEDnh/fv3cS5sJJSEyAnv3r2Lhg0bFu+Fi4SSEDli1qxZcS5cJJSEEF4hoSRETnj+/HmcCxsJJSFywrdv36J//vkn3gsXCSUhcsTYsWPjXLhIKAkhvEJCSYic8Pjx4zgXNhJKQuSEr1+/RpMnT473wkVCSYgcMXjw4DgXLhJKQuScly9fRkuXLo0GDRoUzZw504U4MTg2fvx4dyxZXk8klITIAY8ePYpzPWltbY1Onz4dtbW1RU+fPo2uX7/uyhFICxcujLq7u6OGhoZoxIgRrrzeSCgJkSMsbEmSq1evOv+llStXuv379+87rWjFihXR6tWrXciSJ0+euGM+IKEkxAABTQiNCG3pxIkTLo8G5RsSSkLkgB8/fsS53sGmxHDtzp070alTp+JSv5BQEiIHvHr1qqywJebxfeDAAW9sSGkklITICaXClmDYPnfunMsjxHxFQkmIAYAZtk+ePOn2792751IfkVASIge8ffs2zvUEgYSf0uLFi6OmpqZoyZIl0e3bt+Oj/iGhJEQOePPmTY+wJQgjnCLtXXAHDx506fLly12Kq4A5VvqEhJJHcBOdPXv2t/eteeDevHkz/kRtsOvg3HYdXBM3cB7h4cRfx+qKh3Ot27w/SIct6ejocCma0a1bt34btvFXGjduXLRmzZpo9+7d0bFjx1y5N/wS3vDw4UNevPVr8+bNbr+7u/tXQ0ODK3vx4oUrqwWFm9Sds62tze1zXcOGDftVuJHdfp5ItvmnT5/+aHPyoVAQPO53ywPSlDyDHswc2lDHV61a5fI/f/50aW+gwu/fv9/19H2l8JBGGzdudHm8hNEk8G8JRVsyjRMtqBTW5mgStPnOnTtd+d27d10aAnkJWwISSh7Bw9/V1RXv/QcGTPxPJk6cGJdkw8OHhy7hK3CM6wu7du0q6uk7derUOOc3CNR169ZFLS0tTjgxJM0iq82NSZMmxTn/4XcfM2ZMvBc4scYk+gCqM03JUKC/YLjGkIIhU6mh25UrV9z5SasBwxiGbzasDAmGZAzH2MiXA58Nbaja3/dfPZGm5CH07NOmTYvOnDnjpnF7gyHbli1bon379rkhVn+DhtHc3OyGODZ7ExIMya5du+aGnqz3KgVtyWdv3LgRl4iaEwsn0QfQZOilyu2Jy4XvpNdGSylmdDUtrb/PbZjW0B/fbwb0evToBaFd8tz2mVpOKvQHXG+92rUaSCh5Tnt7u7vhsmZWEFQcq9awiu9FIPbXQ1pPoVSqrao9BK4mtCfXXq2OqdbUZfjGkAA1efjw4b/9Qo4fP/57xsQXCJyV9F9hw3cnOaOT9OVJBtpiFszKqZvV2cr43rTxlf9Pzxb1Ft7UZocWLFjg0iyS56W9k7NnHKO9OZb2y+H6uRZi7/hk3KYtrQ2ztmJDWGbVGIJmzcZRd3x2CgKpKkPgWuHrAtuKiYVTzaDXZThAD4wWAPRi7HM5lfT6fL7SjeFOOVjvw/VYD4TfDmVprYUhDuVpDcCGA83Nze4z1JfNPp+ua1qToF3432LDNxu69abJcA18n6n4fB9QJ7sOtmQva9qZ/T4G/5uuYyX0h6Zk7ZH8DupGWbF2Mvjf9Pnt3qOdkvBbZ2mnPkJ9qFdeqHlN7EFIP0j2gPmiPmfdwIAgSd+sxWbf7CFM22RMQPAwJKGc7+fzHGfjOtJtZdjnyoW2t3PyvexnqfzJ86e3dB0roT+EEtef/H8TrpQXayfDzp+8x2jvZP2SWyhCyeqVF2paExu3pzUEsAe7t56ultjNmnWtaUoJpaybm3K2vlDpd5jmhhaQFpS1wNqjL0IpjXVy5XRmvf0eIUN9uAfzQk1tSjiygXkKJ8GBrdDb9VhUWC+4Rq6HaXlsXti70jag0JgyZYpL9+7d66a8q2WDKGb3YZ0VzJ8/P/N4b8Hvs8BWRmhXAuLXyxbENWfVpdRGG1WbrPOW2nygZkIJf5qCFuQe9LTh1I6V8slJk9WopbZyDelcIzd8QVNy17Zp06ZowoQJmYbSUBg9erRLqVM1jdd4hBc6vB5boUd3xwuaUubxrKD3xeChpsOgLlmdXK3gmrPqUmqjjfqL79+/x7l8UDOh9PHjR5dmRcezV75Mnz7dpeWS9WOX2lgtXS5obSy3QCjxQOHKzyyNLyvIC0OwOFcatLzt27e7TuHZs2dxaZjQMaB1FYYsfxX4PjfLMWL4PYcOHRrv/Z+s+7/U5gN19+jmYTl69KjLz50716W+gXCiZ2PKGCx6X72xhbflLJLdunWr00TpFHwO8FUK6krH0NDQEF26dCkuLY/nz5+71DTGPFFph+4zdRdK9rBAJep7tWGolx6q2c2c1SvVAwvW1dnZ6dJi2NKJHTt2RI2Nja6sUvuNDyCQeHki2h5LR8wmRseW9sHKguE4/+vTfSZ6UjOhxI3ADUGIBW4ebiQelmXLlkXfvn1zn6GMoZEvDmxcnz28XNvly5ddfu3atS41OAbp19zYWD895rfPQzJfKYsWLXLpgwcPXJrGHDsRrufPn3cPMUMeoC6cGxsbNj3f4Vo3bNjg8jh02oQI5XRsDK17s5OZ3TJk58hiFItyECyFcWTNYCrYfGCYwrSpYXMVKAgtNwVf66nqLJg+t6l+29hPOxQmP8P123GbfrbNpqELD8YffkDkKftb7PzpNmPfvj/tv2M+WBxL16eaWJv8jUsA9wX/W2yjHXrD3CH60x3BF6hXOS4RoTCIP4VKiUBBAygIFzcL9TdG34FA3tsIbZgZzbwMS+tuUxJ9g2EMBnimx0N2V6gWDO8KmqEzjIcYemUgIqGUA7CTIJiwgbGQti92qjyBPXD27NnOlpYMnJ8nQrAHVoqEUk5AMDG7BDyIAx088A8dOuS2vAokMP+/UuGSg8JZloQQQYLhvrfHmEkOmwzJmlRJTtTY22vqjTQlIXJMa2urM+6zIgGXiAsXLsRH/gMHVCYBYM6cOS6tNxJKQgTM69ev41w2TH4wGcILKCH9phuGtV++fHH+a74E85NQEiJgcMxFoJQCwYRGZHZHA0M5jqe8jsoXJJSEGCDgFgHJ5TgshkdY+eTpLqEkxADBFu1++PDBpbiOsBjelwXmhoSSEAFz7969sheIWxSOV69euRSjN1Ejmpqa3L4vSCgJETjlhi0ZNWqUSwnhYloSs3K+IaEkxAABYzeROojKQWQF1gL6MuOWREJJiICpdEmRBfljFo74Wj4ioSREwCBcKgnvO2PGDJdevHjR26U3EkpCBE654X3RqogmsW/fPq/DnEgoCTEAQCARZRSfpMOHD8elfiKhJESglLIn8RoqQtngtY1AYu0bsc19R0JJCE9B6CBYinlb2wsjioUtwYfpyJEjTjtCICVjm/uMhJIQHoIwIi4W77dDu+nt7TPFDNamSRF5E4O4j9P/WUgoCeEZrOx/+/Zt1NHR4XyJgGB1lfLkyRP3gkmLFBAKenGAEB5jLz2A9vb2P5aEIGx4MWfeHmFpSkJ4DBoOU/iwbds2lxrv3r37vfI/T0goCeE5eF6zPARjdfqNNXmMPS6hJITnIHj27Nnj8ryxppQrQOhIKAkRAOvXr3faElEiLc42q/3ziISSEAGAtmRv9yXkCNoSq/0bGxtdWZ6QUBIiEHCiZCYObenEiRNxaf6QUBIiICx0LZ7aXV1dLp83JJSECAj8lOztJczGDRkyxOXzhISSEIHR0tIS56Jo0qRJcS4/SCgJERjEQmI9W16RUBIiQLAp5RWtfRNCeIU0JSGEV0goCSE8Ior+BfrGty5Gr2GyAAAAAElFTkSuQmCC&quot;&gt;&lt;br&gt;&lt;/div&gt;" style="rounded=0;whiteSpace=wrap;html=1;" vertex="1" parent="1">
          <mxGeometry x="130" y="680" width="300" height="130" as="geometry" />
        </mxCell>
        <mxCell id="ogi-cVwxuLuFs3qtHHxP-20" value="&lt;font style=&quot;font-size: 15px;&quot;&gt;get_a&lt;/font&gt;" style="rounded=1;whiteSpace=wrap;html=1;" vertex="1" parent="1">
          <mxGeometry x="197.5" y="860" width="165" height="80" as="geometry" />
        </mxCell>
        <mxCell id="ogi-cVwxuLuFs3qtHHxP-22" style="edgeStyle=orthogonalEdgeStyle;rounded=0;orthogonalLoop=1;jettySize=auto;html=1;entryX=0.5;entryY=0;entryDx=0;entryDy=0;" edge="1" parent="1" source="ogi-cVwxuLuFs3qtHHxP-23" target="ogi-cVwxuLuFs3qtHHxP-25">
          <mxGeometry relative="1" as="geometry" />
        </mxCell>
        <mxCell id="ogi-cVwxuLuFs3qtHHxP-23" value="&lt;font style=&quot;font-size: 15px;&quot;&gt;get_b(x,y,z)&lt;/font&gt;" style="rounded=1;whiteSpace=wrap;html=1;" vertex="1" parent="1">
          <mxGeometry x="557.5" y="560" width="165" height="80" as="geometry" />
        </mxCell>
        <mxCell id="ogi-cVwxuLuFs3qtHHxP-24" style="edgeStyle=orthogonalEdgeStyle;rounded=0;orthogonalLoop=1;jettySize=auto;html=1;entryX=0.5;entryY=0;entryDx=0;entryDy=0;" edge="1" parent="1" source="ogi-cVwxuLuFs3qtHHxP-25" target="ogi-cVwxuLuFs3qtHHxP-26">
          <mxGeometry relative="1" as="geometry" />
        </mxCell>
        <mxCell id="ogi-cVwxuLuFs3qtHHxP-25" value="&lt;div&gt;&lt;img alt=&quot;&quot; src=&quot;data:image/png;base64,iVBORw0KGgoAAAANSUhEUgAAAOUAAABACAYAAADlGLBLAAAAAXNSR0IArs4c6QAAAARnQU1BAACxjwv8YQUAAAAJcEhZcwAADsMAAA7DAcdvqGQAAAlESURBVHhe7Z1Li9RMFIZrvj+go65URNSNiAjSuvAGunBEV+JiFDeCCx13XvC+EUQYBReCVxRc2YqKK8UL6GLceEVBcaEj4npE8Q/0l+eYM9Rkku5MJ+nOTM4DRXUq6eokVW+q6tSpdE8jwBmGkRvfv393CxcudENDQ27NmjVhanpMlIZRMv4LY8MwSoKJ0jBKhonSMEqGidIwSoaJ0jBKhonSMEqGibIJt2/fdtu3b3c9PT0SFi1a5B49ehTuNYxiMFEm8PLlS7djxw43Y8YMNzIy4oaHh11vb6/bsmWLTA4bRlGYKJuAV8alS5fczJkz3YIFC9zBgwcl/dmzZxIbRhGYKBPAPerbt2/h1liWLFkSfjKM/DE3uwmwYsUK9/v370SxGkYeWEuZkn379sm48v79+2GKYRSDiTIFJ06ccJcvX3YvXrxwy5YtC1MNoxhMlC1gWuTMmTOuXq+bII2OUAlR/vr1S7qfzDUyxfHx48dwz799mzZtkn3ROUi2mRZBkMxXGkZHwNAz1Tl+/HhjaGio8eHDB4xajf7+fkkfGRlp1Go1SSOwrQTjx0Zvb6981+fKlSuNwcHBcMsw8qcSovRBhIgNECfbvhiVgYGBUbFGg4nSKJLKTYlgtGGMGLR47ty5c+7Vq1fiHGAYZaFyhp6lS5dKfOzYMZneMEEaZaNyopw7d67EQffUrKlGKamUKLG07t+/XxzL3717F6YaRrmo1JiSaQ2czBHkkydPMHKFewyjPFSmpVQ3uQMHDrgNGzZIGsuzDKNsTHlR4kSOYwCeOdevXxfDTl9fn+y7devWqPOArZE0SgPd16kK849cYtBlFccBH+Yodd/Dhw/DVMPIB5xVmOumflHPmBtnO25OPIot3TKMAqD39fr169FFDFevXnV79+51QWMgvbZmVG5KxCgGuv84ZvAeo6kKwkJsrUSl8NYKnXbbs2ePxH/+/JG4GZlEefbs2TEvlTKqCZW0VqvJAvCnT5+GqVMPhLVr1y538uRJESf2iCQeP348ZhGD2izUyNgU6cRmAAdtsqG/bFSPer0u5U9cFXQhQ5LftA/7uTeMLaOLG5LI3H2dNm2axOvWrZPYqA48/ZlqCipbpZa2YcG/c+eOTLGdP38+TB0PU26zZs2S5X8wb948iVsSirNtUD/ZpLEqGQ1ZYcL9wjo32enr6+tq2evvdwut+63Kkvuj5Z6mtczcUjKGYDxhjt3VglYSryh8iKta9rt375aY+e5mcH8OHz4sOmGFUisyiZKB7tu3b93GjRvlM9Y3VvZj+OGzURzaddT7TcBRAguhD+XCcRji9Di6mkneTBht1OFCA0YN/20NoO++bTZs4Tt8lzzI0zeMsE/PqZnBpEh4s4SeA+cZRa+fEL1+4F3AuG3GWWMxgqpxR0n98ApbzLag2SYLJt/pSmgzrhPzaQf/2rRPNEzGLmAe3VccIZiMxtDAGxJA86UcFLpNHEfQ3+N4vsex0fLRPDDeAd/HgBd3vtp1jDpl+FAP+D01Bmq+ev6kcS7tkqX7ynnpZL7mE3Ui0TdVcK5JaF2P3h/S2Kdde/ImLU33NZMo/YrgF46egFlkx5OHKNVLRAWpkO6LUgUVFZ9f2bTSgAolCvlGz1fPIQ38BsdqJeW7edSNLKL04f6QT1Qwep8osyS0PKP3mAeQnh+Ba26Wj0+mK9If1SegQgGS7lcQ4x9ZRakPvFb3VoVAiENbS791UKGl6eE0yzsOfo/8qfiIMw/yEiUPN/KJ3lMVa/Th56PlmVZwacg0pmSgH9zoUW8F5e/fvxJPnz5d4m7ijwuKCEn4jhV+OHLkiOxfu3Zt7P5WK1c+ffokcatJ6C9fvkgcVDSJo1BuoPnB6dOnJcaEPxHPlTQwpgwqtxgGL168GKamQ8el0UD9g7h9hLQwNgx6CeIW53Pz5k0xZLG/k7QtSq08wVNPYh8t6OXLl0vciqQK3CqUeekV1rbgoTcuBE9U2R+0lLH7+Q+TThBXNhiAOC+ETIVHnBhC4owcE2X+/PkSnzp1asLWWrxj4u6VPnDi9hEmwsqVK8UjSY1O1C1EeujQIdnuJG2L8vPnzxKvXr1aYp+7d+9KnPSUjpJUgVuFNBU47nt5hrKTZNn88eNH+Gks3FNEEIyn5IFL67Z+/fpxlkRtadOAqK9duyaf/Za5TGjPQ3sY9BqOHj2aupVM7RiQgrZFifc7zJkzR2KFwmOaBEHaO3DyRwv/+fPnEicxe/ZsiSmLON68eSPxqlWrJI5C2dF9pftGC3Lv3r1wzz/U17lVK8pDYdu2be7ChQuy3eq8u4XeVxobWkn+xEnnIZvx/v17ifXdT3nQtijV8Th6MsyJAU67Rv7QzQK6l9HWC7Rl5Alfq9Xkc3RsqA9OWjvtbVARGRJE89Rup7pTKlu3bpVYW5Y4OBfGg8xjb968ebRbXEYWL14s8c+fP8XpnIdImm4295HxaK7DjqALNmHUVExQqxMWKqxqpKWx3lWVrNZX0DywZnKvyYsYC6dv1qecmOYg6O9RThznpwGfyZN9am30j9U0hW2Oj5va8C2/fF+nXXS+knPl3AKRSnq78H3yyws957TW4Wb3IAttXRFmdG62VgT/YrJUtiqQhyiBCo4o9d5TDuStAlCo/JQLwuI4YrZJ96GCUbn88kw6VlFRRH/Tn7bx9/FZz5l9SfmmJW9Rcu1cc/R6kuAByO/nXefzuyKjchTVUnQD7Sn487bNKPLaTZRGJugtUTmJJyu02LSQaVzggJaUVpWQtlWdCCZKIzMIUit1EZW0COj60irSQnLuCCwNHE8XPNo1zxN7cZaRC1htb9y4IYt/mU4oO1ialUCQMjfbytrKCpwHDx6IdbbQRd0izQqjxoKkEPXrNSY/tHCUbVlb98q3lKxHZL6OJ7x6bzCvh4sZT1CdZDeMTlFpUeKNggvZ169fR7sumoZQ03RpDCNvbEzpwbiI1hH0JbqG0WkyLd2aSuAS1t/fL36eJkijm5goQ3bu3Cl+jPV63QRpdBUTZQBO9DhKDw4OVur9pUY5qfyYUv94ZWBgQP77wTC6TaVbSqY+ECTGHV+QLGNiqsQwukFlW8qkqQ8ssKz/YxEv6YbRaSorSkQ3PDwcbo2H8SWvKTGMTmPzlIZRMsz6ahglw0RpGCXDRGkYpcK5/wE/rTo5lRIZ0wAAAABJRU5ErkJggg==&quot;&gt;&lt;br&gt;&lt;/div&gt;" style="rounded=0;whiteSpace=wrap;html=1;" vertex="1" parent="1">
          <mxGeometry x="485" y="680" width="310" height="130" as="geometry" />
        </mxCell>
        <mxCell id="ogi-cVwxuLuFs3qtHHxP-26" value="&lt;font style=&quot;font-size: 15px;&quot;&gt;get_b&lt;/font&gt;" style="rounded=1;whiteSpace=wrap;html=1;" vertex="1" parent="1">
          <mxGeometry x="557.5" y="860" width="165" height="80" as="geometry" />
        </mxCell>
      </root>
    </mxGraphModel>
  </diagram>
</mxfile>
